<?xml version="1.0" encoding="UTF-8"?>
<svg width="14px" height="14px" viewBox="0 0 14 14" version="1.1" xmlns="http://www.w3.org/2000/svg" xmlns:xlink="http://www.w3.org/1999/xlink">
    <title>Icon/14px/Globe</title>
    <g id="Store" stroke="none" stroke-width="1" fill="none" fill-rule="evenodd">
        <g id="KD1A-Ultimate" transform="translate(-229.000000, -862.000000)" fill="#00AAFF">
            <g id="PDP/Availability-warning" transform="translate(215.000000, 848.000000)">
                <g id="Fill-1" transform="translate(14.000400, 13.999600)">
                    <path d="M11.13,10.773 C10.9473,10.206 10.43,9.8 9.8,9.8 L9.1,9.8 L9.1,7.7 C9.1,7.3157 8.7843,7 8.4,7 L4.2,7 L4.2,5.6 L5.6,5.6 C5.9843,5.6 6.3,5.285 6.3,4.9 L6.3,3.5 L7.7,3.5 C8.4693,3.5 9.1,2.87 9.1,2.1 L9.1,1.813 C11.1503,2.646 12.6,4.655 12.6,7 C12.6,8.456 12.04,9.779 11.13,10.773 L11.13,10.773 Z M6.3,12.551 C3.5343,12.2087 1.4,9.856 1.4,7 C1.4,6.566 1.456,6.153 1.547,5.747 L4.9,9.1 L4.9,9.8 C4.9,10.57 5.53,11.2 6.3,11.2 L6.3,12.551 Z M7,0 C3.136,0 0,3.136 0,7 C0,10.864 3.136,14 7,14 C10.8633,14 14,10.864 14,7 C14,3.136 10.8633,0 7,0 L7,0 Z"></path>
                </g>
            </g>
        </g>
    </g>
</svg>